<svg xmlns="http://www.w3.org/2000/svg" viewBox="0 0 192 192">
  <rect width="192" height="192" rx="30" fill="white"/>
  <rect x="2" y="2" width="188" height="188" rx="28" fill="none" stroke="#e2e8f0" stroke-width="2"/>
  <polygon points="96,22 172,94 20,94" fill="#2563eb"/>
  <rect x="120" y="42" width="16" height="38" rx="2" fill="#1d4ed8"/>
  <rect x="28" y="94" width="136" height="78" fill="white" stroke="#e2e8f0" stroke-width="1.5"/>
  <rect x="38" y="106" width="36" height="28" rx="3" fill="#dbeafe" stroke="#93c5fd" stroke-width="1.5"/>
  <line x1="56" y1="106" x2="56" y2="134" stroke="#93c5fd" stroke-width="1.5"/>
  <line x1="38" y1="120" x2="74" y2="120" stroke="#93c5fd" stroke-width="1.5"/>
  <rect x="118" y="106" width="36" height="28" rx="3" fill="#dbeafe" stroke="#93c5fd" stroke-width="1.5"/>
  <line x1="136" y1="106" x2="136" y2="134" stroke="#93c5fd" stroke-width="1.5"/>
  <line x1="118" y1="120" x2="154" y2="120" stroke="#93c5fd" stroke-width="1.5"/>
  <rect x="76" y="120" width="32" height="52" rx="4" fill="#93c5fd"/>
  <circle cx="102" cy="146" r="3" fill="#2563eb"/>
  <rect x="28" y="150" width="136" height="22" rx="0" fill="#eff6ff"/>
  <line x1="28" y1="155" x2="164" y2="155" stroke="#bfdbfe" stroke-width="1"/>
  <line x1="28" y1="161" x2="164" y2="161" stroke="#bfdbfe" stroke-width="1"/>
  <line x1="60" y1="150" x2="60" y2="172" stroke="#bfdbfe" stroke-width="1"/>
  <line x1="96" y1="150" x2="96" y2="172" stroke="#bfdbfe" stroke-width="1"/>
  <line x1="132" y1="150" x2="132" y2="172" stroke="#bfdbfe" stroke-width="1"/>
</svg>
